<?xml version="1.0" encoding="UTF-8"?>
<svg id="Layer_1" data-name="Layer 1" xmlns="http://www.w3.org/2000/svg" version="1.1" viewBox="0 0 200 50">
  <defs>
    <style>
      .cls-1 {
        display: none;
        fill: #231f20;
      }

      .cls-1, .cls-2, .cls-3 {
        stroke-width: 0px;
      }

      .cls-2 {
        fill: #14aff1;
      }

      .cls-4 {
        font-family: LEMONMILK-Regular, 'LEMON MILK';
        font-size: 27px;
      }

      .cls-4, .cls-3 {
        fill: #fff;
      }
    </style>
  </defs>
  <rect class="cls-1" width="200" height="50"/>
  <g>
    <polygon class="cls-2" points="43.1 14.1 43.1 32.9 37.4 38 29.4 45 22.3 38.7 22.3 30.9 29.4 37.3 37.4 30.1 37.4 22.2 43.1 14.1"/>
    <polygon class="cls-2" points="43.1 5 43.1 12.7 37.4 17.8 35 19.9 29.4 25 21.5 17.8 21.5 38 15.8 32.9 15.8 5 21.5 10.1 29.4 17.3 37.4 10.1 43.1 5"/>
    <polygon class="cls-3" points="43.1 13.9 43.1 14.1 42.5 14.9 37.4 22.2 37.4 19.1 43.1 13.9"/>
  </g>
  <text class="cls-4" transform="translate(50.9 35.5)"><tspan x="0" y="0">MOHJEHA</tspan></text>
</svg>