<?xml version="1.0" encoding="UTF-8"?>
<svg id="Layer_1" data-name="Layer 1" xmlns="http://www.w3.org/2000/svg" version="1.1" viewBox="0 0 50 50">
  <defs>
    <style>
      .cls-1 {
        fill: #fff;
        stroke-width: 0px;
      }
    </style>
  </defs>
  <path class="cls-1" d="M33,18.8v11.3l-8,7.2-7.2-6.4v7.8l7.2,6.3,8-7,5.7-5.1V13.7l-5.7,5.1ZM38.6,32.9l-5.7,5.1-7.9,6.9-7.1-6.2v-7.5l7,6.3h0c0,0,0,0,0,0l8-7.2h0v-7.7l5.5-7.8v18.2ZM33.1,18.8l5.5-4.9v.6l-5.5,7.8v-3.5Z"/>
  <path class="cls-1" d="M30.6,19.9l2.4-2.1,5.6-5.1v-7.7l-5.6,5.1-8,7.2-7.9-7.2-5.7-5.1v27.9l5.7,5.1v-20.2l7.9,7.2,5.6-5.1ZM17,17.6v20.2l-5.5-4.9V5.2l5.5,5,7.9,7.2h0c0,0,0,0,0,0l8-7.2,5.4-4.9v7.4l-5.6,5.1-2.4,2.1-5.5,5-7.8-7.1-.2-.2Z"/>
</svg>