<?xml version="1.0" encoding="UTF-8"?>
<svg id="Layer_1" data-name="Layer 1" xmlns="http://www.w3.org/2000/svg" version="1.1" viewBox="0 0 50 50">
  <defs>
    <style>
      .cls-1 {
        fill: #000;
        stroke-width: 0px;
      }
    </style>
  </defs>
  <path class="cls-1" d="M38.6,13.9v.6l-5.5,7.8v-3.5l5.5-4.9M38.7,13.7l-5.7,5.1v3.8l5.7-8.1v-.8h0Z"/>
  <path class="cls-1" d="M38.6,14.7v18.2l-5.7,5.1-7.9,6.9-7.1-6.2v-7.5l7,6.3h0c0,0,0,0,0,0l8-7.2h0v-7.7l5.5-7.8M38.7,14.4l-5.7,8.1v7.6l-8,7.2-7.2-6.4v7.8l7.2,6.3,8-7,5.7-5.1V14.4h0Z"/>
  <path class="cls-1" d="M11.5,5.2l5.5,5,7.9,7.2h0c0,0,0,0,0,0l8-7.2,5.4-4.9v7.4l-5.6,5.1-2.4,2.1-5.5,5-7.8-7.1-.2-.2v20.2l-5.5-4.9V5.2M38.6,5l-5.6,5.1-8,7.2-7.9-7.2-5.7-5.1v27.9l5.7,5.1v-20.2l7.9,7.2,5.6-5.1,2.4-2.1,5.6-5.1v-7.7h0Z"/>
</svg>