<?xml version="1.0" encoding="UTF-8"?>
<svg id="Layer_1" data-name="Layer 1" xmlns="http://www.w3.org/2000/svg" version="1.1" viewBox="0 0 950 950">
  <defs>
    <style>
      .cls-1 {
        fill: #c4c4c4;
        stroke-width: 0px;
      }
    </style>
  </defs>
  <path class="cls-1" d="M826.9,476.5v191.5c0,7.7-3.1,12.9-9.7,16.6-62.6,35.5-125.1,71.1-187.7,106.7-42.4,24.1-84.9,48.1-127.4,72.2-5.9,3.3-11.8,6.8-17.6,10.2-6.3,3.7-12.5,3.7-18.8,0-30.7-17.5-61.5-35.1-92.2-52.5-35-19.8-70-39.6-104.9-59.4-35.9-20.3-71.7-40.7-107.6-61.1-9.8-5.6-19.6-11.1-29.3-16.6-5.8-3.3-8.7-8.2-8.7-15.1v-385.4c0-6.9,3.3-11.8,8.9-15,39.1-22.6,78.2-45,117.4-67.6,47.7-27.5,95.5-55,143.2-82.4,24.6-14.2,49.3-28.3,74-42.4,5.4-3.1,11.2-3.4,16.6-.3,20.8,11.9,41.5,24.1,62.2,36,20.1,11.6,40.3,23,60.4,34.5,30.3,17.4,60.4,35,90.7,52.4,40.4,23.2,80.9,46.4,121.3,69.6,6,3.5,9.3,8.5,9.3,15.8v192.5-.3ZM779.2,669.1c-.7-.8-.9-1.3-1.3-1.5-32.6-18.9-65.3-37.7-97.9-56.5-16.3-9.4-32.7-18.8-49-28.2-6.8-4-10-9.9-8.9-17.9.8-5.3,6.1-10.9,12.2-12.5,6.7-1.8,12,1.8,17.2,4.9,36,20.8,71.9,41.6,107.8,62.4,11.7,6.8,23.4,13.5,35.7,20.6v-6.6c0-109.8,0-219.6.2-329.4,0-8.6-2.2-13.2-9.9-17.6-52.9-29.9-105.3-60.4-158-90.7-35.8-20.6-71.7-41.2-107.6-61.8-9-5.2-18-10.4-27.8-16v73.3c0,9.3-7.3,16.7-16.1,16.6-9.4,0-16.2-8.9-16-16.6.5-23.3.2-46.7.2-70s-.2-2.4-.3-3.9c-1.1.4-1.8.5-2.3.8-23.4,13.4-46.8,26.9-70.1,40.3-46.7,26.9-93.4,53.9-140.2,80.8-29.5,17-59.1,34-88.7,50.9-2.5,1.5-3.5,3.2-3.5,6.3.1,113.5,0,227,.1,340.4,0,1.4.2,2.7.3,4.5,1.4-.7,2.3-1,3.2-1.5,30.7-17.7,61.4-35.4,92.1-53.1,18.9-10.9,37.8-21.9,56.8-32.5,2.7-1.5,6.4-2.2,9.5-1.7,7.7,1.1,12.5,6.4,13.9,14,1,5.5-2.6,12.5-8.8,16-35.4,20.5-70.8,40.9-106.2,61.3-14.5,8.4-29.1,16.8-44.2,25.6,9.4,5.3,18.2,10.3,27,15.3,47.9,27.3,95.7,54.6,143.6,81.8,43.3,24.6,86.7,49.2,130.1,73.6,1.3.7,3.7.7,5.1,0,6-3.1,11.9-6.6,17.8-9.9,40.5-23,81.1-46,121.6-69,46.1-26.1,92.1-52.3,138.1-78.5,8-4.6,16-9.2,24.2-13.9h0Z"/>
  <path class="cls-1" d="M315,405.6c0-28.3.2-56.6,0-85-.2-22,9.5-39.4,25-53.6,21.9-20,48.7-30.3,77.1-37,24.3-5.6,48.9-7.2,73.6-5.8,40.1,2.4,78.3,11.5,111.2,36,15.1,11.3,26.6,25.4,31.1,44.2,1.1,4.5,1.8,9.1,1.8,13.7,0,59,.3,117.9,0,176.9,0,15.6-7,29.1-17.1,40.7-19.6,22.5-45.5,34.2-73.4,42.2-27,7.8-54.7,10.3-82.6,8.9-35.8-1.8-70.4-9.4-101.6-28-19.5-11.6-35.6-26.7-42.4-49.3-1.7-5.5-2.5-11.4-2.6-17.1-.3-29-.1-58-.1-87v.2ZM347.3,377.7c-.2,1.2-.3,1.9-.3,2.5,0,37.5-.1,75,.1,112.4,0,4.1,1.5,8.5,3.2,12.3,6.7,14.3,19.1,22.8,32.4,29.8,26.5,13.9,55.3,19.1,85,20.3,18.8.7,37.4-1,55.8-5,22.8-4.9,44.4-12.7,62.6-28,10.7-9,17.2-20,17-34.8-.4-34.6,0-69.3,0-103.9v-5.7c-68.3,50.4-193.4,47.1-255.7.1ZM475,382.5c6.8-.5,13.6-1,20.4-1.4,19.6-1.1,38.5-5.3,56.8-12.3,15.6-6,30.1-13.9,41.3-26.6,12.1-13.6,13.4-28.1,2.3-42.4-5.8-7.4-13.3-14.1-21.2-19.2-26.8-17-57.1-23-88.2-24.4-13.9-.6-27.9.7-41.7,1.9-20.5,1.8-40.2,7.3-58.6,16.5-13.1,6.6-25.4,14.4-33.4,27.3-7.1,11.3-7.6,22.5-.2,34,8.6,13.4,21.2,21.7,35.1,28.3,27.7,13.2,57.2,17.9,87.6,18.3h-.2Z"/>
  <path class="cls-1" d="M330.6,666c.4-13.4,6.4-24.5,15-33.8,10.1-10.9,22.2-19.4,36.5-24.2,7.8-2.6,15.6,1.4,18.9,9.2,3.1,7.4.3,15.6-6.6,19.8-7.3,4.5-14.6,9-21.7,13.8-2,1.3-3.7,3.4-5.2,5.3-6.1,7.4-6,15.3.9,22.6,3.2,3.5,7,6.6,10.8,9.4,7.2,5.4,9.3,15.3,4.5,22.4-5.1,7.5-14.4,9.6-22.2,4.5-13.5-8.8-24.4-19.8-28.6-36-1.1-4.3-1.5-8.8-2.2-13.1h0Z"/>
  <path class="cls-1" d="M619,671.9c-.6,13.4-9.4,26.7-22.4,37.7-2.8,2.3-5.8,4.5-8.9,6.4-7,4.2-15.8,2-20.8-4.7-4.8-6.4-3.2-16.5,2.3-21.1,4.3-3.6,8.6-7.2,12.4-11.3,7.2-7.5,7.1-15.5.3-23.4-6.4-7.5-14.5-12.6-23.2-16.8-8.9-4.3-12.6-13.5-8.6-21.9,3.9-8.2,13.8-11.3,22.5-7.1,15.9,7.8,30.3,17.3,39.5,33,4.9,8.3,6.9,15.5,6.9,29.3h0Z"/>
  <path class="cls-1" d="M473.1,744.6c-13.1-1.4-27.8-2.6-42.4-4.7-8.5-1.2-14.2-10.3-12.6-18,1.9-9.1,9.7-14.3,19-13.1,20.8,2.8,41.6,3.9,62.4,1.3,6-.7,12.2-2.2,18.1-1.5,9.7,1.1,14.6,7.5,14.3,16.5-.2,8.4-6.5,14.7-16.2,15.7-13.7,1.4-27.4,2.4-42.7,3.7h.1Z"/>
  <path class="cls-1" d="M730.9,359v20.5c0,8.7-7.2,15.6-15.9,15.6s-16-6.8-16-15.4,0-18.6,0-28c0-2.9-1-4.4-3.5-5.8-6.7-3.6-13.2-7.6-19.7-11.5-7.4-4.4-9.9-13.4-6-21.1,3.8-7.5,13.3-11,20.8-7,11.5,6.1,22.9,12.6,34,19.4,4.3,2.6,6.3,7.1,6.3,12.3v21h0Z"/>
  <path class="cls-1" d="M219,358.6v-20.5c0-5.4,2.2-9.9,6.6-12.6,10.9-6.6,21.9-13,33.2-18.9,11.2-5.8,23.9,2.8,23.1,15.3-.3,5.1-2.4,9.5-7.2,12.3-6.8,3.9-13.3,8-20.2,11.7-2.8,1.5-3.6,3.2-3.6,6.2.2,8.8,0,17.6,0,26.5s-6.7,16.5-16,16.5-16-6.9-16-16.5v-20h0Z"/>
  <path class="cls-1" d="M251,472.9c5.2-1.7,9.8-4.1,14.5-4.6,7.8-.8,13.7,4.1,15.9,11.9,1.9,6.7-1,14.2-7.4,17.9-10.1,5.9-20.3,11.8-30.6,17.4-12.2,6.6-24.4-.8-24.4-14.5v-41.4c0-9.5,6.9-16.4,16.1-16.4s15.8,7,15.8,16.1v13.7h0Z"/>
  <path class="cls-1" d="M699,473.8v-15.3c0-8.6,7.2-15.4,16-15.4s15.9,6.9,15.9,15.5v43.9c0,10.8-11.8,19-21.4,14.2-11.8-5.8-23.3-12.5-34.5-19.5-7.4-4.6-9.1-14.3-4.9-21.5,4.4-7.4,13.3-9.8,21.6-5.8,2.2,1.1,4.3,2.3,7.3,3.8h0Z"/>
</svg>