<?xml version="1.0" encoding="UTF-8"?>
<svg id="Layer_1" data-name="Layer 1" xmlns="http://www.w3.org/2000/svg" version="1.1" viewBox="0 0 30 30">
  <defs>
    <style>
      .cls-1 {
        fill: #31a8ff;
      }

      .cls-1, .cls-2, .cls-3 {
        stroke-width: 0px;
      }

      .cls-2 {
        fill: #000;
      }

      .cls-3 {
        fill: #001e36;
      }

      .cls-4 {
        display: none;
      }
    </style>
  </defs>
  <path id="_1" data-name=" 1" class="cls-3" d="M30,4.6v20.8c0,2.5-2.1,4.6-4.6,4.6H4.6c-2.5,0-4.6-2.1-4.6-4.6V4.6C0,2.1,2.1,0,4.6,0h20.8C27.9,0,30,2.1,30,4.6Z"/>
  <g id="_2" data-name=" 2">
    <path class="cls-1" d="M5.9,14.8v-6.3q0-.2.2-.2h3.8c.8,0,1.6,0,2.3.3,1.3.4,2.3,1.1,2.8,2.3.3.7.5,1.5.4,2.3,0,.6-.1,1.1-.4,1.7-.4.9-1.1,1.6-2.1,2-.7.3-1.4.5-2.2.5h-1.9q-.2,0-.2.2v3.7q0,.3-.3.3h-2.2q-.2,0-.2-.3v-6.5ZM8.6,12.7v2c0,.1,0,.2.1.2h1.2c.5,0,1,0,1.5-.3.6-.2,1-.6,1.2-1.2,0-.3.1-.7,0-1,0-.4-.2-.8-.5-1.1-.3-.4-.8-.5-1.2-.6-.7-.1-1.4,0-2.2,0,0,0-.1,0-.1.1v1.9Z"/>
    <path class="cls-1" d="M16.8,19.7v-1q0-.2.2-.1c1,.5,2,.8,3.1.8s.6,0,.8-.2c.4-.2.5-.6.2-.9s-.4-.3-.7-.4c-.4-.2-.8-.3-1.2-.5-.6-.2-1.1-.5-1.5-.9-.9-.8-1.1-1.8-.7-3,.3-.9.9-1.4,1.7-1.8s1.3-.4,2-.4,1.6.1,2.3.3.2,0,.4.1.2.1.2.3v1.9c0,.2-.1.3-.3.2-.5-.3-1-.4-1.6-.5s-1-.1-1.5,0-.3,0-.4,0c-.4.2-.5.6-.2.9s.3.2.5.3c.5.2,1,.4,1.6.7s1.1.5,1.6,1c.7.6.9,1.4.8,2.3-.1,1.4-.9,2.2-2.2,2.6-.7.2-1.4.3-2.1.3s-1.7-.1-2.5-.4c-.1,0-.2,0-.3-.1-.1,0-.2-.1-.2-.3v-1.1h0Z"/>
  </g>
  <g class="cls-4">
    <path class="cls-2" d="M15.1,5.9c-5,0-9.2,4.1-9.2,9.1s4.1,9.1,9.1,9.1,9.2-4,9.1-9.1c0-1.3-.4-4.1-1.4-4-1.5.1-1.6,3.1-1.8,4.1-.3,1.9-1,3.8-2.2,5.3-1.4,1.8-3.6,2.7-5.8,2.4-2.7-.4-4.5-2.5-5-3.9-.5-1.3-.8-3.2,0-4.8.9-2.1,2.9-3.5,4.7-4.3,1.5-.6,3.1-.9,4.1-1,1.9-.4,2.2-1.1,2.1-1.6,0-.2-.2-.5-.6-.7-.8-.2-2.1-.5-3-.5Z"/>
    <path class="cls-2" d="M18.9,6.9c.1.3,0,.7-.1,1-.2.4-.7.8-1.5,1-1.2.3-2.2.4-3.3.7-1,.3-2.6.8-4,1.9-.2.7-.2,1.5-.3,2,.1,3.8,3.5,6.7,6.9,6.6.7,0,1.5-.2,2.2-.5.4-.6.8-1.3,1-2h0c.3-.8.5-1.4.6-2.1.2-1.2.2-2.2.8-3.6.2-.4.5-.9,1-1,.2,0,.4-.1.6,0-.7-1.9-2.4-3.3-4-3.8h0Z"/>
  </g>
</svg>