<?xml version="1.0" encoding="UTF-8"?>
<svg id="Layer_1" data-name="Layer 1" xmlns="http://www.w3.org/2000/svg" version="1.1" viewBox="0 0 30 30">
  <defs>
    <style>
      .cls-1 {
        fill: #49021f;
      }

      .cls-1, .cls-2 {
        stroke-width: 0px;
      }

      .cls-2 {
        fill: #f36;
      }
    </style>
  </defs>
  <path class="cls-1" d="M30,4v22c0,2.2-1.8,4-4,4H4c-2.2,0-4-1.8-4-4V4C0,1.8,1.8,0,4,0h22c2.2,0,4,1.8,4,4Z"/>
  <path class="cls-2" d="M17.9,13.6c.1,0,.2,0,.3.2v4.3c0,.3-.2.5-.4.6-.2.1-.4.2-.7.2s-.6-.2-.8-.6c-.2-.4-.3-1.1-.3-1.9s.1-1.9.4-2.3c.2-.4.5-.6,1-.6s.4,0,.6,0ZM12.2,7.8c0,0,0-.1-.1-.1h-2.3c0,0-.1,0-.1.1v12.9c0,0,0,.1.1.1h2.3c0,0,.1,0,.1-.1V7.8ZM20.8,20.8s0,0,0,0c0-.6-.1-1.2-.1-1.7,0-.5,0-1,0-1.5V7.8c0,0,0-.1-.1-.1h-2.2c0,0-.1,0-.1.1v3.5c-.1,0-.3,0-.4-.1-.2,0-.5,0-.8,0-1.2,0-2.1.4-2.7,1.3-.6.9-.9,2.1-.9,3.8s.3,2.9.8,3.7c.6.8,1.3,1.2,2.3,1.2s1.7-.4,2.2-1.1l.2.8c0,0,0,.1.1.1h1.6c0,0,.1,0,.1-.1Z"/>
</svg>