<?xml version="1.0" encoding="UTF-8"?>
<svg id="Layer_1" data-name="Layer 1" xmlns="http://www.w3.org/2000/svg" version="1.1" viewBox="0 0 30 30">
  <defs>
    <style>
      .cls-1 {
        fill: #300;
      }

      .cls-1, .cls-2 {
        stroke-width: 0px;
      }

      .cls-2 {
        fill: #ff9a00;
      }
    </style>
  </defs>
  <path class="cls-1" d="M4,0C1.8,0,0,1.8,0,4v22c0,2.2,1.8,4,4,4h22c2.2,0,4-1.8,4-4V4c0-2.2-1.8-4-4-4H4ZM12.9,11.6l-.2,1.3-.6,2.8h1.8l-.7-2.8-.2-1.3Z"/>
  <path class="cls-2" d="M19.6,7.5c.5,0,.8.1,1.1.4.3.3.4.6.4,1s-.1.8-.4,1c-.3.2-.7.4-1.1.4s-.8-.1-1.1-.4c-.3-.3-.4-.6-.4-1s.1-.7.4-1c.3-.3.6-.4,1.1-.4ZM12,7.6h1.9c0,.1,3.7,13.1,3.7,13.1,0,0,0,0,0,0,0,0,0,.1-.1.1h-2.6c0-.1-.8-3-.8-3h-2.8l-.8,2.8h-.1c0,.1-2.3.1-2.3.1,0,0-.1,0-.1,0,0,0,0,0,0-.1l3.7-13h.1ZM18.5,11.4h2.2c0,0,.1,0,.1.1v9.2c0,0,0,.1-.1.1h-2.2c0,0-.1,0-.1-.1v-9.2c0,0,0-.1.1-.1ZM12.9,11.6l-.2,1.3-.6,2.8h1.8l-.7-2.8-.2-1.3Z"/>
</svg>