<?xml version="1.0" encoding="UTF-8"?>
<svg id="Layer_1" data-name="Layer 1" xmlns="http://www.w3.org/2000/svg" version="1.1" viewBox="0 0 30 30">
  <defs>
    <style>
      .cls-1 {
        fill: #31a8ff;
      }

      .cls-1, .cls-2 {
        stroke-width: 0px;
      }

      .cls-2 {
        fill: #001e36;
      }
    </style>
  </defs>
  <path id="_1" data-name="1" class="cls-2" d="M30,4.6v20.8c0,2.5-2.1,4.6-4.6,4.6H4.6c-2.5,0-4.6-2.1-4.6-4.6V4.6C0,2.1,2.1,0,4.6,0h20.8C27.9,0,30,2.1,30,4.6Z"/>
  <g id="_2" data-name="2">
    <path class="cls-1" d="M6.8,14.5c0-2.1,0-4.2,0-6.3,0-.2,0-.2.2-.2,1.2,0,2.4,0,3.6,0,.8,0,1.6,0,2.3.3,1.3.4,2.3,1.1,2.8,2.3.3.7.5,1.5.4,2.3,0,.6-.1,1.1-.4,1.7-.4.9-1.1,1.6-2.1,2-.7.3-1.4.5-2.2.5-.6,0-1.3,0-1.9,0-.2,0-.2,0-.2.2,0,1.2,0,2.5,0,3.7,0,.3,0,.3-.3.3-.7,0-1.4,0-2.2,0-.2,0-.2,0-.2-.3,0-2.1,0-4.2,0-6.3ZM9.5,12.4c0,.7,0,1.3,0,2,0,.1,0,.2.1.2.3,0,.7,0,1,0,.5,0,1,0,1.5-.3.6-.2,1-.6,1.2-1.2,0-.3.1-.7,0-1,0-.4-.2-.8-.5-1.1-.3-.4-.8-.5-1.2-.6-.7-.1-1.4,0-2.2,0,0,0-.1,0-.1.1,0,.7,0,1.3,0,2Z"/>
    <path class="cls-1" d="M17.5,19.4c0-.3,0-.7,0-1,0-.2,0-.2.2-.1,1,.5,2,.8,3.1.8.3,0,.6,0,.8-.2.4-.2.5-.6.2-.9-.2-.2-.4-.3-.7-.4-.4-.2-.8-.3-1.2-.5-.6-.2-1.1-.5-1.5-.9-.9-.8-1.1-1.8-.7-3,.3-.9.9-1.4,1.7-1.8.6-.3,1.3-.4,2-.4.8,0,1.6,0,2.3.3.1,0,.2,0,.4.1.2,0,.2.1.2.3,0,.3,0,.6,0,.9,0,.3,0,.7,0,1,0,.2-.1.3-.3.2-.5-.3-1-.4-1.6-.5-.5,0-1-.1-1.5,0-.1,0-.3,0-.4,0-.4.2-.5.6-.2.9.1.1.3.2.5.3.5.2,1,.4,1.6.7.6.3,1.1.5,1.6,1,.7.6.9,1.4.8,2.3-.1,1.4-.9,2.2-2.2,2.6-.7.2-1.4.3-2.1.3-.8,0-1.7-.1-2.5-.4-.1,0-.2,0-.3-.1-.1,0-.2-.1-.2-.3,0-.4,0-.7,0-1.1Z"/>
  </g>
</svg>