<?xml version="1.0" encoding="UTF-8"?>
<svg id="Layer_1" data-name="Layer 1" xmlns="http://www.w3.org/2000/svg" version="1.1" viewBox="0 0 30 30">
  <defs>
    <style>
      .cls-1 {
        fill: #99f;
      }

      .cls-1, .cls-2 {
        stroke-width: 0px;
      }

      .cls-2 {
        fill: #000c60;
      }
    </style>
  </defs>
  <path class="cls-2" d="M2.7,0C1.2,0,0,1.2,0,2.7v24.6c0,1.5,1.2,2.7,2.7,2.7h24.6c1.5,0,2.7-1.2,2.7-2.7V2.7c0-1.5-1.2-2.7-2.7-2.7H2.7Z"/>
  <path class="cls-1" d="M8.4,8.2h2.7l4.8,13.5h-2.6l-1.1-3.4h-5l-1.2,3.4h-2.4s4.8-13.5,4.8-13.5ZM9.7,10.8l-1.8,5.5h3.8l-1.8-5.5h-.2ZM21.9,11.1c2.9,0,4.5,2,4.5,5.2v.7h-7.1c0,1.8,1,2.9,2.6,2.9s1.9-.4,2.3-1.2h2.2c-.4,1.9-2.1,3-4.5,3s-4.8-2-4.8-5.3,1.8-5.3,4.8-5.3ZM21.7,13.1c-1.4,0-2.3,1-2.5,2.5h4.8c0-1.5-1-2.5-2.3-2.5Z"/>
</svg>