<?xml version="1.0" encoding="UTF-8"?>
<svg id="Layer_1" data-name="Layer 1" xmlns="http://www.w3.org/2000/svg" version="1.1" viewBox="0 0 512.8 510">
  <defs>
    <style>
      .cls-1 {
        fill: #c4c4c4;
        stroke-width: 0px;
      }
    </style>
  </defs>
  <path class="cls-1" d="M347.5,399c3.5,5.5,6.2,10.5,9.5,14.9,8.1,10.9,18.6,18.9,31.1,24.3,3.7,1.6,7.5,2.9,11.1,4.6,7.1,3.4,14.4,4.4,22.2,4.3,17.3-.3,26.9,9.4,26.9,26.8,0,3.3,0,6.7,0,10,0,8.6-2.5,11.1-10.9,11.1-33.3,0-66.7,0-100,0s-67.3,0-101,0c-1.3,0-2.7,0-4,0-4.8-.3-8-3.5-8-7.9,0-4.4,3.1-7.7,7.9-8,1.5-.1,3,0,4.5,0,63,0,126,0,189,0h6.5c0-3.2.3-6.2,0-9.1-.5-3.9-3-6.2-6.9-6.8-1.8-.3-3.7-.1-5.5-.1-108.5,0-217,.1-325.4-.2-14.2,0-14.9,5.5-13.5,16.1h5.3c36.8,0,73.7,0,110.5,0,1.7,0,3.4-.2,5,.2,4.1.8,6.4,3.4,6.7,7.6.3,3.9-2.7,7.4-6.7,8.1-1.5.2-3,.2-4.5.2-40.5,0-81,0-121.5,0-8.8,0-11.2-2.4-11.2-11.3,0-3.7,0-7.3,0-11,0-15.7,10-25.2,25.5-25.8,31.3-1.3,55.4-15.6,71.9-42.3.7-1.1,1.3-2.3,1.8-3.5.2-.4.3-.9.7-2.1h-5.4c-30.7,0-61.3,0-92,0-30,0-50.5-20.5-50.5-50.5,0-81,0-162,0-243,0-25.4,16.9-42.4,42.2-42.4,43.5,0,87,0,130.5,0,1.5,0,3,0,4.5.1,4.1.7,7,4.1,6.7,8.1-.2,4.2-2.6,6.8-6.7,7.6-1.6.3-3.3.2-5,.2-43,0-86,0-129,0-17.8,0-27.3,9.4-27.3,27,0,80.7,0,161.3,0,242,0,22,13.1,35,35.2,35,128.5,0,257,0,385.4,0,18,0,27.3-9.4,27.3-27.5,0-24.2,0-48.3,0-72.5,0-1.5,0-3,0-4.5.5-4.4,3.8-7.5,7.9-7.5,4.2,0,7.6,3,7.9,7.5.3,4.8.1,9.7.1,14.5,0,21.3,0,42.7,0,64,0,24.9-17.1,42-42.2,42-33.3,0-66.7,0-100,0h-6.7ZM144.8,446.7h223.8c-.4-.6-.5-.9-.7-1.1-16.6-10.9-28.7-25.6-36.5-43.9-.6-1.4-3.2-2.6-4.9-2.6-46.8-.1-93.6,0-140.3-.2-3.3,0-4.3,1.4-5.8,4-5,8.6-9.7,17.5-15.9,25.2-5.7,7-13.1,12.5-19.7,18.6Z"/>
  <path class="cls-1" d="M350.2,302.8c-2.4-9-11.2-15.5-21.5-15.7-7.7-.2-15.3,0-23,0-5.9,0-8.4-2.3-9.4-8.1-2.1-12.1-4.2-24.3-6-36.5-.6-4.3-2.2-7.1-6.5-8.8-5.4-2.1-10.4-5.1-15.9-7.8-6.4,12.8-12.8,25.3-18.8,37.8-2.3,4.9-5.5,7.3-11.1,7.7-19.6,1.7-39.1,3.9-58.7,5.7-3.7.3-6.1,1.4-8.1,5-6.9,12.8-18.1,19.6-32.6,20.8-7,.6-10.2-2.7-10.3-9.6,0-17.5,0-35,0-52.5,0-6.9,2.9-10.1,9.7-9.7,19.8,1.1,39.2-1.6,58.4-5.8,3.8-.8,5.2-2.2,5.8-5.9,1.8-11.8,3.8-23.7,5.9-35.5,1.2-7,3.5-8.9,10.8-8.9,16,0,32,0,48,0,1.6,0,3.3,0,5.4,0,0-8.6,0-16.7,0-24.8,0-9.5,5.9-12.9,14.1-8.1,7.9,4.7,15.6,9.6,23.6,14,2.4,1.3,5.6,2.1,8.3,1.8,13.9-1.4,27.8-3.3,41.7-5,5.5-.7,8.8-4.1,8.2-8.7-.5-4.6-4.4-7.3-9.9-6.5-11.4,1.5-22.8,3.1-34.1,4.9-4.1.6-7.4,0-10.6-2.7-10.8-8.9-21.7-17.6-32.8-26.2-2-1.6-5-2.6-7.6-2.6-17.5-.2-35-.8-52.5.1-12.2.6-24.3,4-36.5,5-8.1.7-11.6,4.4-13.9,11.8-3.6,11.6-8.3,22.8-12.7,34.1-1.5,3.8-2,7.4,2.4,9.4,4.1,1.8,6.4-.8,8.4-4.1,5.2-8.9,10.7-17.6,15.9-26.6,2.4-4.3,5.7-6.1,10.6-5.9,6.8.2,13.7,0,20.5,0,5.9,0,8.8,3.1,9,9,0,2,0,4,0,6,0,4.6-2,7.9-6.6,8.7-4.6.9-7.6-1.5-9.2-5.8-.2-.6-.4-1.2-.6-1.7-7.8-1.7-13,.3-16.3,8-2.7,6.2-6.8,11.8-10.4,17.6-6.5,10.4-18.1,14.1-28.5,9.1-10.4-5-14.8-16.4-10.5-27.9,5.9-16.1,12.1-32.1,18-48.2,1.5-4.2,4.2-6.4,8.7-7.1,17.1-2.7,34.1-5.6,51-8.5-5.7-15.3-4.5-31.4-2.4-47.1,2.4-18.2,19-31.6,37.4-32.2,5.7-.2,11.3-.2,17,0,5.3.1,8.4,3.1,8.5,8.4,0,19,.2,38-.2,57,0,4.7-2,9.3-3.2,14.5,6.3-1.3,10.3,3.3,14.7,6.8,9.2,7.4,18.4,14.9,27.8,22.1,1.9,1.4,4.8,2.3,7.1,2,10.4-1.1,20.8-2.9,31.2-4.2,12.8-1.6,24.4,7.1,26.4,19.7,2,12.4-5.9,24.5-18.5,26.7-14.8,2.5-29.8,3.6-44.5,6.1-7.9,1.3-14.3-.2-20.5-4.8-3.6-2.6-7.6-4.6-12.2-7.3,0,5.5-.2,10.3.2,15,.1,1.4,1.8,3,3.2,3.9,12.6,8.5,25.1,16.9,37.9,25.2,4.4,2.8,6.7,6.2,7.2,11.6,1.6,17.1,3.8,34.1,5.5,51.2.3,3.3,1.4,5.3,4.5,6.9,12.4,6.5,19.3,17,21.3,30.7,1.3,8.9-1.9,12.5-10.7,12.5-17.2,0-34.3,0-51.5,0-4.5,0-7.9-1.6-9.2-6.1-1.6-5.2,2.5-9.9,8.7-9.9,13.7,0,27.3,0,41,0,1.3,0,2.5-.1,3.9-.2ZM176.6,261.4c19.2-1.9,37.7-3.7,56.2-5.7,1.5-.2,3.2-2.1,4-3.7,6.6-12.9,13-25.9,19.5-38.8,3.2-6.4,6.8-7.6,13.4-4.4,8.2,4,16.2,8.6,24.6,12.1,7.2,3,10.2,7.8,11.1,15.4,1.3,11.5,3.7,23,5.6,34.4h15.3c-1.8-16.6-3.5-32.8-5.4-49-.2-1.5-1.8-3.1-3.2-4-11-7.5-22.3-14.7-33.1-22.4-4.6-3.3-9.3-4.5-14.8-4.4-15.5.3-30.9,0-46.7,0-2.1,12.7-4.1,25-6.2,37.2-1.5,8.9-2.8,10-11.6,11.6-9.6,1.8-19.2,3.7-28.8,5.5v16ZM264.3,63.4h-31.9c0,5.8-.2,11.3,0,16.8.5,8.3,7.6,14.8,15.9,14.8,8.3,0,15.4-6.5,15.9-14.9.3-5.5,0-10.9,0-16.8ZM144.5,285.1c16-6,17.3-19.4,15.3-37.7h-15.3v37.7ZM264.3,31.5c-15.3-2.1-27.9,4.6-29.6,15.1h29.6v-15.1Z"/>
  <path class="cls-1" d="M312.5,351c-36.3,0-72.6,0-109,0-3.2,0-4.8.9-6.5,3.8-9.2,16.4-32.1,16.4-41.3,0-1.8-3.3-3.8-3.8-7-3.8-14.5.1-29,.3-43.5-.1-2.7,0-6.1-2.1-7.6-4.3-1.2-1.8-1-6,.3-7.7,1.7-2.1,5.2-3.6,8-3.7,14.5-.4,29-.3,43.5,0,3,0,4.6-.8,6.1-3.6,9.1-16.4,32.1-16.7,41.3-.4,1.8,3.1,3.6,4,6.9,4,72,0,144,0,215.9,0,1.7,0,3.3,0,5,0,4.4.4,7.5,3.6,7.6,7.8,0,4.1-3,7.5-7.3,8-1.5.2-3,0-4.5,0-36,0-72,0-108,0ZM184.3,343.2c.1-4.3-3.4-8-7.7-8.1-4.3-.2-8,3.3-8.3,7.6-.2,4.5,3.4,8.4,7.9,8.4,4.3,0,7.9-3.5,8-7.8Z"/>
  <path class="cls-1" d="M464.3,239c0,20.5,0,41,0,61.5,0,7.8-2.7,10.5-10.5,10.5-9.3,0-18.7,0-28,0-6.5,0-9.5-3-9.5-9.5,0-41.7,0-83.3,0-125,0-6.5,2.9-9.4,9.5-9.5,9.7,0,19.3,0,29,0,6.5,0,9.5,2.9,9.5,9.5,0,20.8,0,41.7,0,62.5ZM432.6,198.8h15.5v-15.4h-15.5v15.4ZM432.6,230.7h15.4v-15.4h-15.4v15.4ZM432.4,262.6h15.6v-15.2h-15.6v15.2ZM448,294.9v-15.6h-15.3v15.6h15.3Z"/>
  <path class="cls-1" d="M382,63c24.1,0,48.3,0,72.4,0,24.7,0,41.9,17.1,41.9,41.7,0,46.5,0,92.9,0,139.4,0,1.5.1,3.1-.2,4.5-1,4-3.7,6.4-7.9,6.3-4.2,0-6.8-2.5-7.7-6.5-.4-1.8-.2-3.6-.2-5.5,0-45.6,0-91.3,0-136.9,0-17.4-9.5-27-26.8-27-48.3,0-96.6,0-144.9,0-1.5,0-3,0-4.5,0-4.7-.4-7.9-3.8-7.8-8.1.1-4.2,3.2-7.3,7.6-7.8,1.3-.1,2.7,0,4,0,24.6,0,49.3,0,73.9,0Z"/>
  <path class="cls-1" d="M72.4,167c-5.2,0-10.3.1-15.5,0-5.1-.1-8.5-3.4-8.5-8,0-4.5,3.3-7.9,8.5-7.9,10.3-.1,20.7-.1,31,0,5.1,0,8.5,3.4,8.5,7.9,0,4.5-3.4,7.8-8.5,8-5.2.1-10.3,0-15.5,0Z"/>
  <path class="cls-1" d="M72.2,199c-5,0-10,0-15,0-5.4-.1-8.9-3.5-8.8-8.2.1-4.5,3.5-7.7,8.7-7.8,10.2-.1,20.3-.1,30.5,0,5.4,0,8.9,3.5,8.8,8.2-.1,4.5-3.5,7.6-8.7,7.8-5.2.1-10.3,0-15.5,0Z"/>
  <path class="cls-1" d="M72.2,231c-4.8,0-9.7,0-14.5,0-5.8,0-9.4-3.3-9.3-8.1,0-4.7,3.5-7.8,9.1-7.8,9.8,0,19.7,0,29.5,0,5.8,0,9.4,3.3,9.3,8.1,0,4.8-3.7,7.8-9.6,7.9-4.8,0-9.7,0-14.5,0Z"/>
  <path class="cls-1" d="M67.9,263c-3.8,0-7.7.2-11.5,0-4.8-.2-8-3.6-8-7.9,0-4.4,3.2-7.8,7.9-7.9,8-.2,16-.2,24,0,4.8.1,8,3.6,8,7.9,0,4.3-3.2,7.6-8,8-.3,0-.7,0-1,0-3.8,0-7.7,0-11.5,0,0,0,0,0,0,0Z"/>
  <path class="cls-1" d="M64.4,295c-2.7,0-5.3.1-8,0-4.8-.3-8-3.5-8-7.9,0-4.4,3.1-7.8,7.9-8,5.3-.2,10.7-.2,16,0,4.8.2,8,3.5,8,7.9,0,4.3-3.2,7.7-7.9,8-2.7.2-5.3,0-8,0Z"/>
</svg>