<?xml version="1.0" encoding="UTF-8"?>
<svg id="blender" xmlns="http://www.w3.org/2000/svg" version="1.1" viewBox="0 0 30 30">
  <defs>
    <style>
      .cls-1 {
        fill: #ff9800;
      }

      .cls-1, .cls-2 {
        stroke-width: 0px;
      }

      .cls-2 {
        fill: #1976d2;
      }
    </style>
  </defs>
  <path class="cls-1" d="M25.1,22c.7-.8,1.3-1.7,1.6-2.7h0c.2-.7.3-1.4.3-2.1,0-1.3-.4-2.6-1.1-3.8-.5-.8-1.1-1.5-1.8-2h0s0,0,0,0l-7.5-5.8c-.5-.4-1.3-.4-1.9,0-.5.4-.6,1-.1,1.4h0s3.1,2.5,3.1,2.5h-9.5c-.8,0-1.5.5-1.7,1.2-.2.7.4,1.2,1.2,1.2h0s4.8,0,4.8,0l-8.7,6.6c-.8.6-1.1,1.7-.6,2.3.5.7,1.6.7,2.4,0l4.7-3.8s0,.5,0,.8h0c0,.3.1.9.3,1.4.3,1,.9,2,1.6,2.8.8.8,1.7,1.5,2.7,2h0c1.1.5,2.4.8,3.6.8h0c1.3,0,2.5-.3,3.6-.8,1.1-.5,2-1.1,2.8-2,0,0,0,0,0,0ZM23.5,18c-.2.6-.6,1.2-1,1.6h0c-1,1-2.3,1.5-3.8,1.6-1.5,0-2.8-.6-3.8-1.5-.5-.5-.8-1-1-1.6h0c-.2-.5-.3-1-.3-1.5,0-.8.2-1.5.5-2.1.3-.5.7-1,1.1-1.4h0c.9-.8,2.1-1.2,3.4-1.2,1.3,0,2.5.4,3.4,1.2.5.4.9.9,1.2,1.4.3.5.5,1.1.5,1.7h0c0,.6,0,1.3-.2,1.8Z"/>
  <path class="cls-2" d="M18.8,13.4h0c-.8,0-1.6.3-2.2.8-.6.5-1,1.2-1,2h0c0,.8.3,1.6.9,2.2.6.6,1.4.9,2.3.9h0c.9,0,1.7-.4,2.3-.9.6-.6.9-1.3.9-2.2,0-.8-.4-1.5-1-2-.6-.5-1.4-.8-2.2-.8Z"/>
</svg>