<?xml version="1.0" encoding="UTF-8"?>
<svg id="Layer_1" data-name="Layer 1" xmlns="http://www.w3.org/2000/svg" version="1.1" viewBox="0 0 30 30">
  <defs>
    <style>
      .cls-1 {
        fill: #1c1c1c;
      }

      .cls-1, .cls-2, .cls-3 {
        stroke-width: 0px;
      }

      .cls-2 {
        fill: #ff9800;
      }

      .cls-3 {
        fill: #1976d2;
      }
    </style>
  </defs>
  <path id="_1" data-name=" 1" class="cls-1" d="M30,4.6v20.8c0,2.5-2.1,4.6-4.6,4.6H4.6c-2.5,0-4.6-2.1-4.6-4.6V4.6C0,2.1,2.1,0,4.6,0h20.8C27.9,0,30,2.1,30,4.6Z"/>
  <path id="_2" data-name=" 2" class="cls-2" d="M23.9,18.2c.2-.6.2-1.1.2-1.6,0-1-.3-2-.8-2.9-.4-.6-.8-1.1-1.4-1.5h0l-5.7-4.4c-.4-.3-1-.3-1.4,0-.4.3-.5.8,0,1.1h0l2.3,1.9h-7.2c-.6,0-1.1.4-1.3.9s.3.9.9.9h3.6l-6.6,5c-.6.5-.8,1.3-.5,1.7.4.5,1.2.5,1.8,0l3.6-2.9v.6h0c0,.2,0,.7.2,1.1.2.8.7,1.5,1.2,2.1.6.6,1.3,1.1,2,1.5h0c.8.4,1.8.6,2.7.6h0c1,0,1.9-.2,2.7-.6s1.6-.8,2.3-1.5,1.1-1.5,1.2-2.1h.2ZM21.5,17.2c-.2.5-.5.9-.8,1.2h0c-.8.8-1.7,1.1-2.9,1.2-1.1,0-2.1-.5-2.9-1.1-.4-.4-.6-.8-.8-1.2h0c-.2-.4-.2-.8-.2-1.1,0-.6.2-1.1.4-1.6.2-.4.5-.8.8-1.1h0c.7-.6,1.6-.9,2.6-.9s1.9.3,2.6.9c.4.3.7.7.9,1.1.2.4.4.8.4,1.3h0c0,.5,0,1-.2,1.4h.1Z"/>
  <path id="_3" data-name=" 3" class="cls-3" d="M17.9,13.7h0c-.6,0-1.2.2-1.7.6s-.8.9-.8,1.5h0c0,.6.2,1.2.7,1.7s1.1.7,1.7.7h0c.7,0,1.3-.3,1.7-.7s.7-1,.7-1.7-.3-1.1-.8-1.5-1.1-.6-1.7-.6h.2Z"/>
</svg>