<?xml version="1.0" encoding="UTF-8"?>
<svg id="Layer_1" data-name="Layer 1" xmlns="http://www.w3.org/2000/svg" version="1.1" viewBox="0 0 30 30">
  <defs>
    <style>
      .cls-1 {
        fill: #1c1c1c;
      }

      .cls-1, .cls-2, .cls-3 {
        stroke-width: 0px;
      }

      .cls-2 {
        fill: #1734e2;
      }

      .cls-3 {
        fill: #fff;
      }
    </style>
  </defs>
  <path id="_1" data-name=" 1" class="cls-1" d="M30,4.6v20.8c0,2.5-2.1,4.6-4.6,4.6H4.6c-2.5,0-4.6-2.1-4.6-4.6V4.6C0,2.1,2.1,0,4.6,0h20.8C27.9,0,30,2.1,30,4.6Z"/>
  <g id="_2" data-name=" 2">
    <path class="cls-3" d="M15.1,5.9c-5,0-9.2,4.1-9.2,9.1s4.1,9.1,9.1,9.1,9.2-4,9.1-9.1c0-1.3-.4-4.1-1.4-4-1.5.1-1.6,3.1-1.8,4.1-.3,1.9-1,3.8-2.2,5.3-1.4,1.8-3.6,2.7-5.8,2.4-2.7-.4-4.5-2.5-5-3.9-.5-1.3-.8-3.2,0-4.8.9-2.1,2.9-3.5,4.7-4.3,1.5-.6,3.1-.9,4.1-1,1.9-.4,2.2-1.1,2.1-1.6,0-.2-.2-.5-.6-.7-.8-.3-1-.4-2-.5s-.7,0-1.1,0Z"/>
    <path class="cls-2" d="M18.9,6.9c.1.3,0,.7-.1,1-.2.4-.7.8-1.5,1-1.2.3-2.2.4-3.3.7-1,.3-2.6.8-4,1.9-.2.7-.2,1.5-.3,2,.1,3.8,3.5,6.7,6.9,6.6.7,0,1.5-.2,2.2-.5.4-.6.8-1.3,1-2h0c.3-.8.5-1.4.6-2.1.2-1.2.2-2.2.8-3.6.2-.4.5-.9,1-1,.2,0,.4-.1.6,0-.7-1.9-2.3-3.5-3.9-4h0Z"/>
  </g>
</svg>