<?xml version="1.0" encoding="UTF-8"?>
<svg id="Layer_1" data-name="Layer 1" xmlns="http://www.w3.org/2000/svg" version="1.1" viewBox="0 0 30 30">
  <defs>
    <style>
      .cls-1 {
        fill: #000;
        stroke-width: 0px;
      }
    </style>
  </defs>
  <path class="cls-1" d="M15.1,0C6.8,0,0,6.8,0,15c0,8.3,6.8,15,15,15,8.2,0,15.1-6.6,15-15,0-2.1-.7-6.7-2.3-6.6-2.5.2-2.7,5.1-3,6.8-.5,3.1-1.7,6.3-3.7,8.7-2.3,2.9-5.9,4.5-9.6,3.9-4.4-.7-7.4-4.1-8.3-6.5-.9-2.2-1.3-5.2,0-7.9,1.4-3.5,4.7-5.8,7.8-7,2.5-1,5.1-1.4,6.7-1.7,3.1-.6,3.6-1.8,3.5-2.7,0-.3-.3-.9-1-1.2C18.8.4,16.6,0,15.1,0Z"/>
  <path class="cls-1" d="M21.4,1.7c.2.5.1,1.1-.2,1.6-.4.7-1.2,1.3-2.4,1.6-2,.5-3.7.7-5.4,1.2-1.6.5-4.2,1.3-6.6,3.2-.3,1.1-.4,2.4-.5,3.3.2,6.3,5.7,11.1,11.4,10.8,1.1,0,2.4-.3,3.6-.8.7-1,1.3-2.2,1.7-3.3h0c.5-1.3.8-2.3,1-3.5.4-2,.3-3.6,1.3-5.9.3-.7.9-1.4,1.6-1.7.3-.1.7-.2,1,0-1.1-3.1-3.9-5.4-6.6-6.3h0Z"/>
</svg>