<?xml version="1.0" encoding="UTF-8"?>
<svg id="Layer_1" data-name="Layer 1" xmlns="http://www.w3.org/2000/svg" version="1.1" viewBox="0 0 30 30">
  <defs>
    <style>
      .cls-1 {
        fill: #fe4d21;
      }

      .cls-1, .cls-2 {
        stroke-width: 0px;
      }

      .cls-2 {
        fill: #fff;
      }
    </style>
  </defs>
  <path id="_1" data-name=" 1" class="cls-1" d="M30,4.6v20.8c0,2.5-2.1,4.6-4.6,4.6H4.6c-2.5,0-4.6-2.1-4.6-4.6V4.6C0,2.1,2.1,0,4.6,0h20.8C27.9,0,30,2.1,30,4.6Z"/>
  <path id="_2" data-name="2" class="cls-2" d="M22.2,9.1c-1-.9-2.2-1.7-3.5-2.1.2.4.2.8.2,1.3-1.1-1.4-2.7-2.3-4.4-2.4-1.1,0-2.1,0-3.1.5.8.2,1.5.8,1.9,1.5-1.8-.6-3.8-.4-5.3.5-.7.4-1.2.9-1.7,1.5,1.1-.2,2.3,0,3.1.8-.7.7-1.7,1-2.6,1,.1.2.3.5.5.7,0,0,0,0,0,0-.7.3-1.2.8-1.6,1.4-.4.7-.6,1.5-.5,2.3,0,.5.2.9.4,1.3-.1-.9.7-1.7,1.5-1.6.9,0,1.5.9,1.3,1.8-.2.6-.7,1.1-1.3,1.1.8,1.5,2.3,2.6,3.9,3,.6.1,1.2.2,1.8.2-.4.3-1,.6-1.6.7,1.4,1,3.1,1.5,4.8,1.5,1.4,0,2.8-.3,4-.9,1.2-.6,2.2-1.5,3-2.6.8-1.1,1.4-2.4,1.6-3.7.2-1.4.1-2.9-.3-4.3-.4-1.3-1.2-2.5-2.2-3.5ZM21,19.5c-.9,1-2.2,1.6-3.6,1.7-1.4,0-2.8-.4-3.8-1.3-1-.9-1.7-2.2-1.8-3.5-.1-1.4.3-2.8,1.1-3.9.8-1.1,2.1-1.8,3.4-2,1.4-.2,2.8.1,3.9.9,1.1.8,1.9,2,2.2,3.3,0,.4.1.7.1,1.1,0,1.4-.5,2.7-1.5,3.7Z"/>
</svg>