<?xml version="1.0" encoding="UTF-8"?>
<svg id="Layer_1" data-name="Layer 1" xmlns="http://www.w3.org/2000/svg" version="1.1" viewBox="0 0 595.3 595.3">
  <defs>
    <style>
      .cls-1 {
        fill: #c4c4c4;
        stroke-width: 0px;
      }
    </style>
  </defs>
  <path class="cls-1" d="M553.6,361.6c-3.1,4.3-7.2,6.1-12.5,6.1-18.2-.2-36.3,0-54.5,0-8.9,0-13-4-13-12.9,0-18.5,0-37,0-55.5,0-8.3,3.4-11.6,11.7-11.6,5.6,0,11.2,0,16.8,0,.5-70.1-54.7-169.2-164.6-191.9,0,4.9,0,9.6,0,14.4,0,7.5-3.9,11.5-11.5,11.5-19,0-38,0-57,0-7.5,0-11.5-3.9-11.5-11.5,0-4.7,0-9.3,0-14-96.6,17.3-164.5,108.8-164.6,191.5,6.1,0,12.3.4,18.3-.1,6.2-.5,10.1,4.7,10.1,9.7.2,19.8.2,39.6,0,59.5,0,6.4-4.5,10.8-10.9,10.8-19.7.1-39.3.3-59-.2-3.4,0-6.7-3.7-10-5.7,0-23,0-46,0-69,3.2-4.3,7.6-5.5,12.8-5.1,4,.4,8-.2,12,.1,4.4.4,5-1.6,5.4-5.5,1.1-11.2,1.8-22.7,4.6-33.5,3.7-14.4,8.8-28.5,14.1-42.5,8.4-21.9,21.3-41.3,36.9-58.6,19.9-22.2,42.8-40.8,70.1-53.4,1.2-.5,2.2-1.4,3.5-2.2h-79.1c-.1.7-.3,1-.3,1.3,0,5.3,0,10.7,0,16,0,8.1-4.3,12.3-12.5,12.3-18.3,0-36.6-.1-54.9,0-5.4,0-9.5-1.7-12.5-6.1V41.6h74c4.3,3.1,6.3,7.1,6,12.5-.3,5.4,0,10.8,0,16.1h136c0-5.7.4-11-.1-16.3-.5-5.6,1.7-9.4,6.1-12.4h68c4.4,3,6.6,6.8,6.1,12.4-.5,5.4-.1,10.9-.1,16.3h136c0-5.6.2-10.9,0-16.2-.3-5.4,1.7-9.5,6-12.5h74v74c-3.1,4.3-7.2,6.1-12.5,6.1-18.3-.2-36.6,0-54.9,0-8.2,0-12.5-4.2-12.5-12.3,0-5.8,0-11.5,0-17.4h-79.9c2,1.2,3.2,2,4.4,2.6,18,8.2,34.3,19.2,48.9,32.3,20.2,18.1,37.5,38.7,50.1,63,15.4,29.5,25,60.5,26.3,93.9.1,3.1,1.4,4,4.3,4,4.3-.1,8.7.3,13-.1,5.2-.5,9.6.7,12.8,5.1v69ZM100.4,62h-38.4v38.4h38.4v-38.4ZM494.9,61.9v38.5h38.4v-38.5h-38.4ZM61.9,346.4h38.5v-38.4h-38.5v38.4ZM533.3,346.5v-38.6h-38.3v38.6h38.3ZM316.3,100.4v-38.4h-37.4v38.4h37.4Z"/>
  <path class="cls-1" d="M224.6,553.6c-4.3-3.2-5.1-7.6-5.1-12.8.2-25.2,0-50.3.2-75.5,0-3.1-1-4.9-3.3-6.4-10.6-6.9-15.1-17.2-13.5-29.2,1.8-13.5,9.9-22.7,23.5-25.8,4.7-1.1,9.9-.2,15.4-.2-3.2-14.2-8-27.2-14.9-39.2-7.3-12.8-16.2-24.4-27.2-34.3-4-3.6-4.5-8.5-2.7-12.3,4.9-10.3,10.8-20.2,16.7-29.9,2.5-4.1,8.9-5.1,12.8-3,4.6,2.5,6.9,7.4,4.9,12.3-2.2,5.4-5.3,10.4-8,15.6-1.2,2.3-2.4,4.6-3.7,7.1,13.6,13.6,24.5,29.1,31.8,46.9,4.4,10.8,7.3,22.2,11.2,33.2.5,1.4,2.4,3.2,3.7,3.2,20.8.2,41.7.2,62.5,0,1.2,0,3.3-1.9,3.6-3.3,5.3-23.9,15-45.8,30.2-65.1,4-5,8.1-9.9,12.6-15.4-22.1-40.1-44.4-80.6-67.3-122.3-.2,1.9-.4,2.8-.4,3.6,0,21.2,0,42.3,0,63.5,0,3,.9,4.3,3.9,5.7,12.8,6,22,17,20.2,37-1.1,12-13.3,26.1-25.9,28.2-19.5,3.3-37.2-5.4-41.6-26.7-3.4-16.5,2.6-30.3,20.4-39.1,1.4-.7,3-2.6,3-4,.2-22.3.1-44.6.1-68.5-3.9,6.9-7.2,12.6-10.4,18.3-3.7,6.7-7.4,13.4-11.1,20.2-3.5,6.4-8.9,8.6-14.7,5.9-5.5-2.5-7.3-8.5-4-15.2,4.6-9.2,9.5-18.3,14.4-27.3,6.5-11.9,13.2-23.7,19.8-35.5,2.1-3.7,3.9-7.5,6.1-11.2,4.5-7.8,15.2-8,19.6-.2,5.5,9.6,10.8,19.4,16.2,29.1,12.3,22.3,24.7,44.6,36.9,66.9,7.9,14.3,15.6,28.7,23.4,43,4.3,7.9,8.7,15.8,12.8,23.7,3.7,7.1,3.1,11.3-2.7,16.7-18.2,17.1-30.3,38.1-38.2,61.6-1,3.1-1.4,6.3-2.3,10.3,3.3,0,6.4.2,9.4,0,12.2-.9,24.7,8.7,28.3,20.9,3.8,13.1-.7,26.7-11.9,34.1-2.6,1.7-3.8,3.8-3.7,7.1.2,25,0,50,.2,75,0,5.2-.8,9.6-5.1,12.8h-10c-4.3-3.2-5.1-7.6-5.1-12.8.2-23.8.1-47.6.1-71.4v-5.6h-116v5.6c0,23.8-.1,47.6.1,71.4,0,5.2-.8,9.6-5.1,12.8h-10ZM297.6,443.7c19.7,0,39.3,0,59,0,2.9,0,6.5,0,8.6-1.4,2.8-2,6-5.6,6-8.5,0-2.9-3.3-6.4-6-8.5-1.9-1.5-5.3-1.4-8.1-1.4-39.6,0-79.3,0-118.9,0-2.7,0-5.6.5-8.2,1.3-4.9,1.5-7.2,7.8-5.1,12.4,2.6,5.7,7.8,6.2,12.8,6.3,20,.2,40,0,60,0ZM310.7,301.7c0-7.5-5.4-13.1-12.8-13.1-7.5,0-12.7,5.5-13.3,12.8-.6,7.3,5.4,13.5,13.2,14,7,.5,12.9-6.3,12.9-13.7Z"/>
  <path class="cls-1" d="M238.4,253.7c6.4,0,10.2,3.9,10.2,10.5,0,5.1-4.8,10.2-9.8,10.4-5.4.2-11-5.2-11.1-10.8,0-5.5,4.8-10.1,10.7-10.1Z"/>
</svg>