<?xml version="1.0" encoding="UTF-8"?>
<svg id="Layer_1" data-name="Layer 1" xmlns="http://www.w3.org/2000/svg" version="1.1" viewBox="0 0 30 30">
  <defs>
    <style>
      .cls-1 {
        fill: #1c1c1c;
      }

      .cls-1, .cls-2 {
        stroke-width: 0px;
      }

      .cls-2 {
        fill: #fff;
      }
    </style>
  </defs>
  <path id="_1" data-name=" 1" class="cls-1" d="M30,4.6v20.8c0,2.5-2.1,4.6-4.6,4.6H4.6c-2.5,0-4.6-2.1-4.6-4.6V4.6C0,2.1,2.1,0,4.6,0h20.8C27.9,0,30,2.1,30,4.6Z"/>
  <path class="cls-2" d="M14.8,5.9c-2.6,3-3.6,4.6-3.9,7,0,0,0,0,0,0-1-.6-1.7-1.7-2.2-2.8l-1.7.7c1.2,3.8,2.1,5.4,4.1,6.8,0,0,0,0,0,0-1,.6-2.3.7-3.6.5l-.3,1.8c3.9.8,5.8.9,8-.1h0c0,1.2-.6,2.4-1.4,3.4l1.4,1.1c2.6-3,3.6-4.6,3.8-6.9,0,0,0,0,0,0,1,.6,1.7,1.7,2.2,2.8l1.7-.7c-1.2-3.8-2.1-5.4-4.1-6.8,0,0,0,0,0,0,1-.6,2.3-.7,3.6-.5l.3-1.8c-3.9-.8-5.8-.9-7.9.1h0c0-1.2.6-2.4,1.4-3.4l-1.4-1.1ZM14.9,12.6c1.3,0,2.4,1,2.5,2.3,0,1.3-1,2.4-2.3,2.5-1.3,0-2.4-1-2.5-2.3,0-1.3,1-2.4,2.3-2.5Z"/>
</svg>