<?xml version="1.0" encoding="UTF-8"?>
<svg id="Layer_1" data-name="Layer 1" xmlns="http://www.w3.org/2000/svg" version="1.1" viewBox="0 0 30 30">
  <defs>
    <style>
      .cls-1 {
        fill: #1c1c1c;
      }

      .cls-1, .cls-2 {
        stroke-width: 0px;
      }

      .cls-2 {
        fill: #fff;
      }
    </style>
  </defs>
  <path id="_1" data-name=" 1" class="cls-1" d="M30,4.6v20.8c0,2.5-2.1,4.6-4.6,4.6H4.6c-2.5,0-4.6-2.1-4.6-4.6V4.6C0,2.1,2.1,0,4.6,0h20.8C27.9,0,30,2.1,30,4.6Z"/>
  <g>
    <path class="cls-2" d="M12.1,10.8s0,0,.1,0c.3,0,.4.2.4.5v2.8c0,.3-.2.3-.3.3-.1,0-.2,0-.3,0,.7.9,1.8,1.5,3,1.5l1-1,.6.7c1.5-.7,2-2,2.1-2.5-.5.6-1.2,1.1-1.6.7,0,0,0-2.1,0-3s1.1-2,1.1-2c-.6.1-1.3.3-2.1,1.1,0,0-.1.1-.2.2-.3-.3-.8-.2-.8-.2.2.1.5.5.5.8v3s-.5.4-.9.4c-.2,0-.3,0-.5-.2,0,0,0,0,0-.1v-3.7c-.1,0-.5.2-.5-.5s.3-.9.8-1.2c-.5,0-1.2.3-1.9.9-.8.7-1.3,1.8-1.3,2.9,0,0,.4-1.2.8-1.3Z"/>
    <path class="cls-2" d="M15,18.2c3.4,0,6.1-2.7,6.1-6.1,0-3.4-2.7-6.1-6.1-6.1h0c-3.4,0-6.1,2.7-6.1,6.1,0,3.4,2.7,6.1,6.1,6.1ZM15,6.1c3.3,0,5.9,2.6,5.9,5.9h0c0,3.3-2.6,5.9-5.9,5.9-3.3,0-5.9-2.6-5.9-5.9,0-3.3,2.6-5.9,5.9-5.9Z"/>
    <path class="cls-2" d="M9.2,21.1c0,.3-.2.6-.6.6s-.6-.2-.6-.6v-1h-.6v1c0,.6.4,1,1.1,1s1.1-.4,1.1-1v-1h-.6v1Z"/>
    <polygon class="cls-2" points="12.5 20.1 12 20.1 12 21.3 10.8 20.1 10.2 20.1 10.2 22.1 10.7 22.1 10.7 20.8 12 22.1 12.5 22.1 12.5 20.1"/>
    <path class="cls-2" d="M15.2,20.8c0-.5-.4-.7-.9-.7h-1.4v2h.6v-.6h.6l.5.6h.7l-.6-.7c.3,0,.5-.3.5-.6ZM14.3,21.1h-.8v-.5h.8c.2,0,.4,0,.4.2,0,.2-.1.2-.4.2Z"/>
    <polygon class="cls-2" points="17.6 21.7 16.1 21.7 16.1 21.3 17.3 21.3 17.3 20.9 16.1 20.9 16.1 20.6 17.6 20.6 17.6 20.1 15.5 20.1 15.5 22.1 17.6 22.1 17.6 21.7"/>
    <path class="cls-2" d="M18.8,20.1l-1,2h.6l.2-.4h1.1l.2.4h.6l-1-2h-.6ZM18.7,21.3l.3-.7.3.7h-.7Z"/>
    <polygon class="cls-2" points="21.2 21.6 21.2 20.1 20.6 20.1 20.6 22.1 22.5 22.1 22.5 21.6 21.2 21.6"/>
    <polygon class="cls-2" points="10.9 23.6 11.7 23.6 11.7 23.3 10.9 23.3 10.9 23.1 11.8 23.1 11.8 22.8 10.5 22.8 10.5 24.1 11.9 24.1 11.9 23.8 10.9 23.8 10.9 23.6"/>
    <polygon class="cls-2" points="13.3 23.6 12.5 22.8 12.1 22.8 12.1 24.1 12.4 24.1 12.4 23.2 13.3 24.1 13.6 24.1 13.6 22.8 13.3 22.8 13.3 23.6"/>
    <path class="cls-2" d="M14.7,23.6h.4c0,.2-.2.2-.4.2-.3,0-.5-.1-.5-.4s.2-.4.5-.4.3,0,.4.1l.3-.2c-.1-.1-.4-.2-.7-.2-.5,0-.9.3-.9.7s.3.7.9.7.6-.1.7-.3v-.5h-.8v.3h0Z"/>
    <rect class="cls-2" x="15.7" y="22.8" width=".4" height="1.3"/>
    <polygon class="cls-2" points="17.5 23.6 16.7 22.8 16.3 22.8 16.3 24.1 16.7 24.1 16.7 23.2 17.5 24.1 17.9 24.1 17.9 22.8 17.5 22.8 17.5 23.6"/>
    <polygon class="cls-2" points="18.5 23.6 19.3 23.6 19.3 23.3 18.5 23.3 18.5 23.1 19.5 23.1 19.5 22.8 18.1 22.8 18.1 24.1 19.5 24.1 19.5 23.8 18.5 23.8 18.5 23.6"/>
  </g>
</svg>