<?xml version="1.0" encoding="utf-8"?>
<!-- Generator: Adobe Illustrator 28.5.0, SVG Export Plug-In . SVG Version: 9.03 Build 54727)  -->
<svg version="1.0" id="katman_1" xmlns="http://www.w3.org/2000/svg" xmlns:xlink="http://www.w3.org/1999/xlink" x="0px" y="0px"
	 viewBox="0 0 50 50" style="enable-background:new 0 0 50 50;" xml:space="preserve">
<style type="text/css">
	.st0{fill:#2857AF;}
	.st1{fill:#FFFFFF;}
</style>
<g>
	<path class="st0" d="M50,0H0v50h50V0z"/>
	<path class="st1" d="M20.4,30.4c0.3,0.5,0.7,0.8,1.1,0.7c0.4,0,0.8-0.4,1.2-1c1.1-2,1.7-3.9,2.4-5.8c0.9-2.6,1.9-5.3,3.8-7.9
		c2-2.7,5.3-3.7,6.5-4c0.2,0,0.2-0.3,0.1-0.4C32.5,9.7,28.9,8.3,25,8.3c-1.9,0-3.8,0.3-5.5,0.9c-2.1,0.8-3.6,2.8-3.6,5
		C15.8,18.6,16.5,24.9,20.4,30.4z"/>
	<path class="st1" d="M35.9,16.3c-1.8,0.2-3.1,1.5-3.9,2.5c-1.6,2.1-2.4,4.3-3.3,6.8c-0.7,2-1.5,4.1-2.7,6.3c-1,1.9-2.6,3.8-4.4,3.9
		c-0.1,0-0.2,0-0.3,0c-1.6,0-3.2-1.6-4.3-3.2c-4-5.6-5.1-11.8-5.3-16.6c0-0.4-0.6-0.6-0.8-0.2C8.7,19.3,7.6,24.1,8.8,29
		c1.6,6.2,6.6,10.9,12.4,12.2C32,43.6,41.6,35.4,41.6,25c0-2.1-0.4-4.1-1.1-6c-0.5-1.4-1.7-2.4-3.1-2.7C37,16.2,36.4,16.2,35.9,16.3
		z"/>
</g>
</svg>
