<?xml version="1.0" encoding="UTF-8"?>
<svg id="Layer_1" data-name="Layer 1" xmlns="http://www.w3.org/2000/svg" version="1.1" viewBox="0 0 595.3 595.3">
  <defs>
    <style>
      .cls-1 {
        fill: #c4c4c4;
        stroke-width: 0px;
      }
    </style>
  </defs>
  <path class="cls-1" d="M529.5,573.5c-11.7-3.3-18.6-13-26.9-20.6-23.9-21.7-47.4-43.9-71-66-16.2-15.1-32.3-30.3-49.1-45.9-6.9,17.9-13.6,35.2-20.8,53.6-8.7-22-17-43.1-25.4-64.5-21.2,10.6-41.8,20.9-63.7,31.8,9.8-22.2,19.2-43.3,28.9-65.2-22.3-7.1-44.5-14.3-68-21.8,22.9-9,44.7-17.6,67.1-26.4-10.8-21.1-21.5-41.8-32.9-64.1,22.7,10.1,44.1,19.6,65.9,29.3,7.5-22.5,14.9-44.7,22.7-68.1,8.8,23.1,17.1,45,25.5,67.1,21.4-10.8,42.6-21.6,64.9-32.9-10.3,22.5-20.1,43.9-30.1,65.8,21.7,7.2,43.2,14.3,66.2,21.8-17.4,7.8-33.7,15-50.7,22.6,4,3.9,7.8,7.5,11.6,11.1,40.1,37.8,80.3,75.6,120.2,113.6,4.1,3.9,6.4,9.7,9.5,14.7v9c-5.7,13.4-21.6,29.3-35,35h-9ZM548.5,533.4c-1-1-2.1-2.1-3.1-3.1-14.4-13.6-28.9-27.1-43.3-40.7-22.5-21.3-44.9-42.7-67.4-64-7-6.7-14-13.3-21.1-19.8-3.1-2.9-6.6-5.1-11.2-3.8-9.4,2.6-12.2,13-5,19.8,16.8,16,33.8,31.7,50.7,47.5,22.9,21.4,45.8,42.7,68.7,64,5.7,5.3,11.4,10.5,16.9,15.5,5.1-5.3,9.9-10.1,14.9-15.3ZM334.3,361.2c-9.4,3.8-18.4,7.4-28.5,11.4,10.5,3.4,19.6,6.4,28.8,9.4-4.1,9.3-8,18.2-12.4,28.2,9.7-4.8,18.3-9,27.1-13.4,4.1,10.3,8,20.2,12.4,31.4,3.3-8.6,6.7-15.7,8.7-23.2,3.7-13.8,12.3-22.1,25.7-26.3,6.4-2,12.7-4.6,19.1-6.9,0-.4-.2-.8-.2-1.1-10.4-3.5-20.8-6.9-31.4-10.4,4.1-8.9,8-17.6,12.5-27.4-9.7,4.8-18.2,9.1-27.1,13.5-3.7-9.6-7.1-18.5-11-28.5-3.5,10.4-6.6,19.5-9.7,28.8-9-4-17.7-7.8-27.5-12.2,4.9,9.6,9.2,18,13.7,26.8Z"/>
  <path class="cls-1" d="M21.8,525.3V21.8h503.4v423.5c-4.8-4.6-8.8-9.4-13.7-12.9-8.2-5.7-10.3-13-10.2-22.8.5-59.2.2-118.3.2-177.5v-6.3h-48c0,6.6-.2,13.2,0,19.8.1,2.9-.9,4.5-3.5,5.8-6.7,3.2-13.3,6.6-20.4,10.2V45.9H117.9v215.6c1.9,0,3.7,0,5.5,0,33.8,0,67.7,0,101.5,0,3.4,0,5,1.1,6.4,4,3.1,6.6,6.6,13,10.2,20.1h-123.6v216h6.1c93.7,0,187.3,0,281,0,4.8,0,8.4.9,11.9,4.4,6.5,6.5,13.5,12.6,20.9,19.4H21.8ZM93.3,45.8h-47.5v35.4h47.5v-35.4ZM501.3,45.8h-47.5v35.4h47.5v-35.4ZM45.9,105.8v35.4h47.4v-35.4h-47.4ZM453.7,141.2h47.4v-35.4h-47.4v35.4ZM93.2,201.3v-35.4h-47.4v35.4h47.4ZM453.7,201.3h47.5v-35.4h-47.5v35.4ZM93.3,225.9h-47.4v35.4h47.4v-35.4ZM93.3,285.8h-47.4v35.3h47.4v-35.3ZM93.1,381.3v-35.5h-47.3v35.5h47.3ZM45.7,441.1h47.5v-35.3h-47.5v35.3ZM45.8,501.1h47.4v-35.4h-47.4v35.4Z"/>
  <path class="cls-1" d="M183.5,393.4c3.7,9.1,7,16.9,9.9,24.9,1.4,3.7,3.4,6,7.2,7.3,8,2.9,15.9,6.2,25,9.9-9.1,3.6-17,7-25.1,10-3.5,1.3-5.7,3.3-7,6.9-2.9,8-6.3,15.9-9.9,25.1-2-4.7-4.1-8.4-5-12.4-3.1-13.4-11-21.7-24.6-24.7-3.9-.9-7.6-2.9-12.6-4.9,9.1-3.6,17-7,25.1-10,3.5-1.3,5.7-3.3,7-6.9,3-8.1,6.3-16.1,10-25.2Z"/>
</svg>