<?xml version="1.0" encoding="UTF-8"?>
<svg id="Layer_1" data-name="Layer 1" xmlns="http://www.w3.org/2000/svg" version="1.1" viewBox="0 0 30 30">
  <defs>
    <style>
      .cls-1 {
        fill: #2857af;
      }

      .cls-1, .cls-2 {
        stroke-width: 0px;
      }

      .cls-2 {
        fill: #fff;
      }
    </style>
  </defs>
  <path id="_1" data-name=" 1" class="cls-1" d="M29.9,4.6v20.8c0,2.5-2.1,4.6-4.6,4.6H4.5C2,30,0,27.9,0,25.4V4.6C0,2.1,2,0,4.5,0h20.8c2.5,0,4.6,2.1,4.6,4.6Z"/>
  <g>
    <path class="cls-2" d="M12.5,18.1c.2.3.4.3.6.3s.4-.2.7-.5c.6-1.1.9-2.1,1.3-3.2.5-1.4,1-2.9,2.1-4.3,1.1-1.5,2.9-2,3.6-2.2.1,0,0-.2,0-.2-1.6-1.3-3.6-2-5.8-2s-2.2.1-3,.5-2,1.5-2,2.7c0,2.4.2,5.7,2.4,8.7h0Z"/>
    <path class="cls-2" d="M20.9,10.2c-1,.1-1.6.9-2,1.5-.9,1.2-1.3,2.4-1.8,3.7-.4,1.1-.8,2.2-1.5,3.5-.5,1-1.4,2.1-2.4,2.1h-.2c-.9,0-1.8-.9-2.4-1.8-2.2-3.1-2.8-6.5-2.9-9.1,0-.2-.3-.3-.4-.1-1.2,1.9-1.8,4.5-1.2,7.2.9,3.4,3.6,6,6.8,6.7,5.9,1.3,11.2-3.2,11.2-8.9s-.2-2.2-.6-3.3c-.3-.8-.9-1.4-1.7-1.5s-.9,0-.9,0Z"/>
  </g>
</svg>